<?xml version="1.0" encoding="utf-8"?>
<!-- Generator: Adobe Illustrator 16.0.0, SVG Export Plug-In . SVG Version: 6.00 Build 0)  -->
<!DOCTYPE svg PUBLIC "-//W3C//DTD SVG 1.1//EN" "http://www.w3.org/Graphics/SVG/1.1/DTD/svg11.dtd">
<svg version="1.1" id="Layer_1" xmlns="http://www.w3.org/2000/svg" xmlns:xlink="http://www.w3.org/1999/xlink" x="0px" y="0px"
	 width="729.733px" height="699.964px" viewBox="595.699 0.959 729.733 699.964"
	 enable-background="new 595.699 0.959 729.733 699.964" xml:space="preserve">
<path id="curved_bg" fill="#195463" d="M1278.387,247.634c-11.29-35.376-0.752-82.043-22.204-111.398
	c-21.451-29.731-69.623-33.871-98.979-55.699c-29.354-21.075-48.172-65.484-83.548-76.774
	c-33.871-10.914-75.27,13.548-112.903,13.548c-37.635,0-78.656-24.462-112.903-13.548c-35.377,11.29-54.193,55.699-83.549,77.15
	c-29.73,21.452-77.526,25.968-98.979,55.699c-21.451,29.355-10.914,76.021-22.204,111.398
	c-10.914,33.871-47.419,65.483-47.419,103.118s36.505,69.247,47.419,103.118c11.29,35.377,0.753,82.043,22.204,111.398
	c21.452,29.73,69.624,33.87,98.979,55.322c29.355,21.451,48.172,65.86,83.172,77.15c33.871,10.914,75.27-13.548,112.904-13.548
	c37.634,0,79.031,24.462,112.902,13.548c35.377-11.29,54.193-55.699,83.549-77.15c29.731-21.452,77.527-25.968,98.979-55.699
	c21.451-29.354,10.914-76.021,22.204-111.397c10.914-33.871,47.419-65.484,47.419-103.118
	C1325.807,313.118,1289.301,281.882,1278.387,247.634z"/>
<path id="icon" fill="#ECECEC" d="M1068.011,412.85L1068.011,412.85l-3.764-33.118l0,0l0,0l-23.71,19.946l6.398,3.011
	c0,0,0.753,30.107-35.377,30.107c-36.129,0-38.01-31.989-38.01-31.989v-95.968h40.645l0,0c0,0,8.656-3.011,8.656-11.667
	c0-8.656-8.656-11.29-8.656-11.29l-31.236-0.753c9.408-6.774,15.43-18.064,15.43-30.484c0-21.075-16.936-38.011-38.011-38.011
	s-38.011,16.936-38.011,38.011c0,12.419,6.021,23.71,15.431,30.484l-30.484,0.753c0,0-8.655,2.634-8.655,11.29
	c0,8.656,8.655,11.667,8.655,11.667h40.646v95.968c0,0-1.882,31.989-38.011,31.989s-35.376-30.107-35.376-30.107l6.397-3.011
	l-23.71-19.946l-3.764,33.118l9.033-5.646c0,0,7.526,33.495,41.773,47.42c34.248,13.925,49.678,22.204,56.076,35.752v0.377l0,0l0,0
	l0,0l0,0l0,0l0,0l0,0v-0.377c6.773-13.548,22.204-21.827,56.074-35.752c33.871-13.925,41.774-46.667,41.774-47.42L1068.011,412.85
	L1068.011,412.85z M945.322,250.269c0-8.656,7.15-15.806,15.807-15.806s15.807,7.15,15.807,15.806
	c0,8.656-7.15,15.807-15.807,15.807l0,0C952.097,266.075,945.322,258.925,945.322,250.269z"/>
<path id="bottom-text" fill="#ECECEC" d="M782.742,462.15l-0.753,3.011l-9.785,4.893l-1.882-3.764l7.903-4.14l-3.387-6.774
	l-23.71,11.667l4.14,8.656l-0.753,3.011l-27.473,13.925l-3.011-1.129l-5.269-10.538l1.129-3.011l9.785-4.893l1.882,3.764
	l-7.903,4.14l3.387,6.774l23.71-11.667l-4.14-8.656l1.129-3.011l27.473-13.925l3.011,1.13L782.742,462.15z M736.828,510.322
	l48.925-33.494l-1.129-1.882l3.387-2.635l4.893,7.151l-3.387,2.634l-1.13-1.882l-47.043,32.366l4.141,6.021l47.043-32.366
	l-1.129-1.882l3.763-2.634l4.893,7.15l-3.387,2.635l-1.129-1.882l-48.925,33.494l-3.011-0.376l-6.774-9.785V510.322z
	 M793.656,517.097l-28.227,26.721l1.882,1.882l-3.011,3.011l-6.397-6.774l3.011-3.011l1.882,1.882l41.397-39.517l-1.882-1.882
	l3.011-3.011l3.388,3.388l0.376,2.634l-16.936,24.463l25.215-15.807l2.635,0.376l3.387,3.388l-3.01,3.011l-1.883-1.882
	l-41.397,39.516l1.882,1.882l-3.011,3.011l-6.397-6.773l3.011-3.011l1.882,1.881l28.226-26.72l-16.56,10.161l-3.011-3.011
	L793.656,517.097z M821.506,543.064l-23.334,31.236l1.882,1.506l-2.634,3.387l-7.527-5.645l2.635-3.388l1.881,1.506l34.248-45.914
	l-1.882-1.506l2.634-3.387l3.764,3.011l0.753,2.635l-12.419,27.097l22.204-19.57h2.634l3.764,3.011l-2.635,3.387l-1.881-1.505
	l-34.248,45.914l1.882,1.505l-2.634,3.388l-7.527-5.646l2.635-3.387l1.882,1.505l23.333-31.236l-14.678,12.796l-3.011-3.011
	L821.506,543.064z M842.957,607.796l-16.559-8.656l1.881-3.764l2.259,1.13l27.097-50.431l-2.259-1.129l1.882-3.764l16.56,8.656
	l-6.397,11.667l-3.764-1.882l4.14-7.903l-6.397-3.388l-12.42,23.334l3.764,1.882l2.634-4.893l3.764,1.882l-7.15,13.172l-3.764-1.882
	l2.635-4.893l-3.764-1.882l-12.419,23.333l6.397,3.388l4.14-7.903l3.764,1.882L842.957,607.796z M879.463,617.957l-1.506,4.14
	l-4.14-1.505l-1.129-2.635l9.784-26.721l-6.773-2.634l-9.032,24.839l2.258,0.752l-1.506,4.14l-8.279-3.011l1.506-4.14l2.258,0.753
	l19.569-53.817l-2.634-1.129l1.505-4.14l15.807,5.645l1.506,2.635l-9.785,27.097l-2.635,1.129l1.506,3.011l-9.032,24.839
	L879.463,617.957z M893.011,561.882l-6.774-2.635l-9.032,24.839l6.774,2.635L893.011,561.882z M935.161,633.764l-11.667-1.506
	l-1.881-2.634l7.15-61.345l2.258-1.882l11.667,1.506l1.882,2.258l-7.15,61.345L935.161,633.764z M940.054,572.043l-7.15-0.753
	l-6.774,56.828l7.15,0.753L940.054,572.043z M963.764,630.376h2.635v4.517l-9.409,0.376v-4.516h2.635l-1.882-57.204h-2.635v-4.517
	h4.517l2.258,1.506l13.925,45.537l-1.506-43.279h-2.634v-4.517l9.408-0.376v4.516h-2.634l1.881,57.205h2.635v4.516h-4.516
	l-2.259-1.505l-13.925-45.538L963.764,630.376z M1008.549,563.387l19.945-6.021l3.764,12.796l-4.14,1.129l-2.634-8.655l-3.764,1.129
	l16.559,54.946l2.259-0.753l1.129,4.14l-8.28,2.635l-1.129-4.14l2.259-0.753l-16.56-54.946l-3.764,1.129l2.635,8.656l-4.14,1.129
	L1008.549,563.387z M1055.215,550.592l24.463,51.936l1.882-1.13l1.882,3.764l-7.903,3.764l-1.882-3.764l1.882-1.129l-11.291-24.086
	l-6.397,3.387l11.29,24.086l1.882-1.129l1.882,3.764l-7.903,3.764l-1.882-3.764l1.882-1.129l-24.462-51.936l-1.882,1.129
	l-1.882-3.764l7.903-3.763l1.882,3.763l-1.882,1.129l11.29,24.087l6.774-3.012l-11.291-24.086l-1.881,1.13l-1.882-3.764l7.903-3.764
	l1.881,3.764L1055.215,550.592z M1114.301,586.721l-15.807,10.161l-2.258-3.764l2.258-1.505l-31.236-48.173l-2.258,1.506
	l-2.258-3.764l15.807-10.161l7.15,11.29l-3.764,2.259l-4.893-7.527l-6.021,4.14l14.301,22.204l3.388-2.258l-3.011-4.516l3.764-2.259
	l8.279,12.796l-3.764,2.258l-3.011-4.516l-3.388,2.258l14.302,22.204l6.021-4.14l-4.893-7.526l3.764-2.259L1114.301,586.721z
	 M1110.161,503.172h3.011l7.903,7.903l-3.011,3.011l-6.397-6.021l-5.269,5.269l18.816,18.441l6.774-6.774H1135l22.204,21.451v3.011
	l-8.279,8.28h-3.011l-7.903-7.903l3.011-3.011l6.398,6.397l5.269-5.269l-18.817-18.441l-6.774,6.774h-3.011l-22.204-21.451v-3.011
	L1110.161,503.172z M1181.667,519.354l-11.291,15.054l-3.387-2.634l1.505-2.259l-45.913-34.247l-1.506,2.259l-3.387-2.635
	l11.29-15.054l10.538,7.903l-2.635,3.387l-7.15-5.269l-4.517,6.021l21.076,15.807l2.634-3.388l-4.14-3.387l2.635-3.387l12.043,9.032
	l-2.635,3.387l-4.14-3.387l-2.635,3.387l21.075,15.807l4.517-6.021l-7.15-5.269l2.634-3.388L1181.667,519.354z M1191.075,495.646
	l0.376-1.13l3.764,1.882l-4.516,8.28l-3.764-1.882l1.882-3.388l-47.419-32.741l-0.753,1.505l-3.764-1.882l4.517-8.279l3.763,1.882
	l-0.753,1.505l53.817,21.076l1.882-3.388l3.764,1.882l-4.516,8.279l-3.764-1.882l0.376-1.129l-17.312-6.773l-3.388,6.021
	L1191.075,495.646z M1175.269,477.581l-23.333-9.032l20.322,14.301L1175.269,477.581z"/>
<path id="upper-text" fill="#ECECEC" d="M784.247,235.215l-9.408,16.183l-3.764-2.258l1.506-2.258l-49.302-29.355l-1.505,2.258
	l-3.764-2.258l9.409-16.183l11.29,6.774l-2.259,3.764l-7.526-4.516l-3.764,6.398l22.581,13.548l2.258-3.387l-4.516-2.634
	l2.258-3.764l13.172,7.903l-2.258,3.763l-4.517-2.634l-2.258,3.011l22.581,13.548l3.763-6.398l-7.903-4.516l2.259-3.763
	L784.247,235.215z M789.517,220.538l1.505-1.882l3.387,2.635l-6.021,7.527l-3.011-3.011l1.506-1.882l-44.409-36.129l-1.505,1.881
	l-3.387-2.634l3.011-3.763l2.634-0.753l43.28,19.193l-33.495-27.097l-1.505,1.882l-3.388-2.634l6.021-7.527l3.388,2.634
	l-1.506,1.882l44.408,36.129l1.506-1.882l3.387,2.635l-3.011,3.763l-2.634,0.752l-43.279-19.193L789.517,220.538z M805.322,189.301
	l6.021,6.774l5.27-4.893l-38.388-42.15l-1.882,1.505l-3.011-3.011l7.151-6.398l3.01,3.011l-1.881,1.882l40.269,43.656v3.011
	l-8.656,7.903l-3.011-0.376l-7.526-8.279L805.322,189.301z M844.086,175.376l-9.408,6.774l-3.011-0.752l-35.377-50.43l0.377-3.011
	l9.408-6.774l3.011,0.376l35.377,50.43L844.086,175.376z M806.828,126.075l-6.021,4.14l33.118,46.667l6.021-4.14L806.828,126.075z
	 M837.688,103.118l8.279-4.14l1.882,3.764l-2.635,1.505l6.021,29.355l12.796,25.215l1.882-1.129l1.882,3.764l-7.903,4.14
	l-1.882-3.763l1.882-1.129l-12.796-25.215l-19.193-22.581l-2.635,1.505l-1.882-3.764l8.28-4.14l1.882,3.763l-1.506,0.753
	l14.301,15.43l-4.516-20.699l-1.882,0.752L837.688,103.118z M918.226,144.516l-16.183,3.764l-1.129-4.14l2.635-0.752L890,87.688
	l-2.635,0.753l-1.129-4.14l16.184-3.764l2.634,1.505l14.301,59.839L918.226,144.516z M901.667,85.054l-7.151,1.882l13.549,55.699
	l7.15-1.881L901.667,85.054z M947.581,140.376l-18.817,1.881l-0.377-4.14l2.635-0.376L925,80.914l-2.635,0.376l-0.376-4.14
	l18.817-1.882l1.505,13.172l-4.14,0.376l-0.752-9.032l-7.527,0.752l2.635,26.344l4.14-0.376l-0.753-5.269l4.14-0.376l1.506,15.054
	h-4.14l-0.753-5.269l-4.14,0.376l2.634,26.344l7.527-0.753l-1.129-9.032l4.14-0.376L947.581,140.376z M996.506,76.398l1.881,2.258
	l-1.129,10.914l-4.14-0.376l0.753-9.032l-7.527-0.752l-2.634,26.344l9.408,1.129L995,109.14l-3.387,30.484l-2.635,1.882
	l-11.667-1.129l-1.882-2.258l1.13-10.914l4.14,0.376l-1.129,9.032l7.526,0.753l2.635-26.344l-9.409-1.129l-1.881-2.258l3.387-30.484
	l2.258-1.882L996.506,76.398z M1003.279,142.258l13.925-57.581l-2.258-0.376l1.129-4.14l8.656,1.882l-1.129,4.14l-2.259-0.376
	l-13.548,55.699l7.15,1.882l13.548-55.699l-2.258-0.376l1.129-4.14l8.656,1.882l-1.129,4.14l-2.258-0.376l-13.925,57.581
	l-2.635,1.505l-11.29-2.635L1003.279,142.258z M1036.774,149.409l2.258,1.129l-1.505,4.14l-8.656-3.763l1.505-4.14l2.259,1.129
	l21.828-53.064l-2.259-1.129l1.506-4.14l4.516,1.882l1.506,2.258l-6.021,47.043l16.183-39.893l-2.258-1.129l1.505-4.14l8.656,3.764
	l-1.506,4.14l-2.258-1.129l-21.828,53.064l2.259,1.129l-1.506,4.14l-4.516-1.881l-1.506-2.258l6.021-47.043L1036.774,149.409z
	 M1106.398,115.538l0.752,3.011l-5.645,9.409l-3.764-2.258l4.516-7.527l-6.397-3.763l-13.549,22.957l8.28,4.892l0.752,3.011
	l-15.807,26.721l-3.01,0.753l-10.162-6.022l-0.752-3.011l5.645-9.408l3.764,2.258l-4.516,7.903l6.397,3.763l13.548-22.957
	l-8.279-4.892l-0.752-3.011l15.806-26.721l3.011-0.752L1106.398,115.538z M1133.871,140.376l-35,45.161l1.882,1.505l-2.635,3.387
	l-6.774-5.269l2.635-3.387l1.882,1.505l16.183-21.076l-5.645-4.516l-16.184,21.076l1.882,1.505l-2.634,3.387l-6.774-5.269
	l2.634-3.387l1.882,1.505l35-45.161l-1.882-1.505l2.635-3.387l6.774,5.269l-2.635,3.387l-1.882-1.505l-16.183,21.075l5.646,4.516
	l16.183-21.075l-1.882-1.505l2.635-3.387l6.773,5.269l-2.634,3.387L1133.871,140.376z M1151.559,156.559l-39.892,41.398l1.882,1.882
	l-3.012,3.011l-6.773-6.774l3.011-3.011l1.882,1.882l39.893-41.398l-1.882-1.882l3.011-3.011l6.773,6.774l-3.01,3.011
	L1151.559,156.559z M1124.086,210.753l1.506,1.881l-3.388,2.634l-6.021-7.526l3.388-2.635l1.505,1.882l44.409-36.129l-1.506-1.882
	l3.387-2.634l3.011,3.763v2.635l-27.849,38.387l33.494-27.097l-1.506-1.882l3.388-2.634l6.021,7.527l-3.387,2.634l-1.506-1.881
	l-44.408,36.129l1.505,1.882l-3.387,2.634l-3.011-3.764v-2.634l27.85-38.387L1124.086,210.753z M1146.667,251.398l-9.785-16.183
	l3.764-2.258l1.505,2.258l49.301-29.354l-1.505-2.258l3.764-2.258l9.784,16.183l-11.29,6.774l-2.258-3.764l7.526-4.516l-3.763-6.398
	l-22.581,13.548l2.258,3.387l4.517-2.634l2.258,3.763l-13.172,7.903l-2.258-3.763l4.516-2.635l-2.258-3.387l-22.581,13.548
	l3.764,6.398l7.903-4.517l2.259,3.764L1146.667,251.398z"/>
<path id="inner-circle" fill="#ECECEC" d="M960.753,526.882c-96.721,0-175.377-78.656-175.377-175.376
	c0-96.721,78.656-175.377,175.377-175.377c96.72,0,175.376,78.656,175.376,175.377
	C1136.129,448.226,1057.473,526.882,960.753,526.882z M960.753,183.656c-92.581,0-167.85,75.269-167.85,167.849
	c0,92.581,75.269,167.85,167.85,167.85c92.58,0,167.85-75.269,167.85-167.849C1128.603,258.925,1053.333,183.656,960.753,183.656z"
	/>
<path id="middle-circle" fill="#ECECEC" d="M960.753,548.71c-108.764,0-197.204-88.441-197.204-197.204
	c0-108.764,88.44-197.205,197.204-197.205c108.763,0,197.204,88.441,197.204,197.205
	C1157.957,460.269,1069.516,548.71,960.753,548.71z M960.753,158.441c-106.506,0-193.441,86.559-193.441,193.441
	s86.56,193.44,193.441,193.44c106.505,0,193.44-86.559,193.44-193.44S1067.635,158.441,960.753,158.441z"/>
<path id="outer-circle" fill="#ECECEC" d="M960.753,664.247c-172.366,0-312.366-140-312.366-312.365
	c0-172.366,140-312.366,312.366-312.366c172.365,0,312.365,140,312.365,312.366C1273.118,524.247,1133.118,664.247,960.753,664.247z
	 M960.753,50.43c-165.968,0-301.075,135.107-301.075,301.076c0,165.967,135.107,301.075,301.075,301.075
	s301.075-135.108,301.075-301.076C1261.828,185.538,1127.097,50.43,960.753,50.43z"/>
<circle id="left-dot" fill="#ECECEC" cx="711.989" cy="344.355" r="11.291"/>
<circle id="right-dot" fill="#ECECEC" cx="1209.893" cy="344.355" r="11.291"/>
</svg>
